#Comment line ignore any data following # character 
#Hierarchical Translation and Rotation (.htr) file 
[Header]	
#Header keywords are followed by a single value 
FileType HTR		#Single word string
DataType HTRS		#Translation followed by rotation and scale data
FileVersion 1		#integer
NumSegments 84		#integer
NumFrames 2		#integer
DataFrameRate 30		#integer, data frame rate in this file
EulerRotationOrder ZYX
CalibrationUnits mm
RotationUnits Degrees
GlobalAxisofGravity Y
BoneLengthAxis Y
ScaleFactor 1.00
[SegmentNames&Hierarchy]
#CHILD	PARENT
MASTER GLOBAL
root MASTER
chest root
L_mid_tent01 root
R_mid_tent01 root
spine01 root
Bip01_Neck chest
L_humerus chest
R_humerus chest
weapon_bone chest
Bip01_Head Bip01_Neck
eye_left_bone Bip01_Head
eye_right_bone Bip01_Head
L_forearm L_humerus
L_front_hand L_forearm
L_weapon_bone L_forearm
L_front_hand01_01 L_front_hand
L_front_hand02_01 L_front_hand
L_front_hand03_01 L_front_hand
L_front_hand01_02 L_front_hand01_01
L_front_hand02_02 L_front_hand02_01
L_front_hand03_02 L_front_hand03_01
R_forearm R_humerus
R_front_hand R_forearm
R_weapon_bone R_forearm
R_front_hand01_01 R_front_hand
R_front_hand02_01 R_front_hand
R_front_hand03_01 R_front_hand
R_front_hand01_02 R_front_hand01_01
R_front_hand02_02 R_front_hand02_01
R_front_hand03_02 R_front_hand03_01
null_rope01_connect L_mid_tent01
Rope1_Seg01 null_rope01_connect
Rope1_Seg02 Rope1_Seg01
Rope1_Seg03 Rope1_Seg02
Rope1_Seg04 Rope1_Seg03
Rope1_Seg05 Rope1_Seg04
Rope1_Seg06 Rope1_Seg05
Rope1_Seg07 Rope1_Seg06
Rope1_Seg09 Rope1_Seg07
L_mid_hand01 Rope1_Seg09
L_mid_hand02 Rope1_Seg09
L_mid_hand03 Rope1_Seg09
null_rope02_connect R_mid_tent01
Rope2_Seg01 null_rope02_connect
Rope2_Seg02 Rope2_Seg01
Rope2_Seg03 Rope2_Seg02
Rope2_Seg04 Rope2_Seg03
Rope2_Seg05 Rope2_Seg04
Rope2_Seg06 Rope2_Seg05
Rope2_Seg07 Rope2_Seg06
Rope2_Seg09 Rope2_Seg07
R_mid_hand01 Rope2_Seg09
R_mid_hand02 Rope2_Seg09
R_mid_hand03 Rope2_Seg09
spine02 spine01
spine03 spine02
pelvis spine03
null_rope03_connect pelvis
null_rope04_connect pelvis
Rope3_Seg01 null_rope03_connect
Rope3_Seg02 Rope3_Seg01
Rope3_Seg03 Rope3_Seg02
Rope3_Seg04 Rope3_Seg03
Rope3_Seg05 Rope3_Seg04
Rope3_Seg06 Rope3_Seg05
Rope3_Seg07 Rope3_Seg06
Rope3_Seg08 Rope3_Seg07
Rope3_Seg09 Rope3_Seg08
R_rear_hand01 Rope3_Seg09
R_rear_hand02 Rope3_Seg09
R_rear_hand03 Rope3_Seg09
Rope4_Seg01 null_rope04_connect
Rope4_Seg02 Rope4_Seg01
Rope4_Seg03 Rope4_Seg02
Rope4_Seg04 Rope4_Seg03
Rope4_Seg05 Rope4_Seg04
Rope4_Seg06 Rope4_Seg05
Rope4_Seg07 Rope4_Seg06
Rope4_Seg08 Rope4_Seg07
Rope4_Seg09 Rope4_Seg08
L_rear_hand01 Rope4_Seg09
L_rear_hand02 Rope4_Seg09
L_rear_hand03 Rope4_Seg09
[BasePosition]
#SegmentName Tx, Ty, Tz, Rx, Ry, Rz, BoneLength
MASTER 0.000000 0.000000 0.000000 -90.000000 0.000000 0.000000 10.000000 
root 0.000000 0.000000 0.000000 0.000000 0.000000 0.000000 10.000000 
chest 0.000000 0.000000 0.000000 0.000000 0.000000 0.000000 10.000000 
L_mid_tent01 0.000000 0.000000 0.000000 0.000000 0.000000 0.000000 10.000000 
R_mid_tent01 0.000000 0.000000 0.000000 0.000000 0.000000 0.000000 10.000000 
spine01 0.000000 0.000000 0.000000 0.000000 0.000000 0.000000 10.000000 
Bip01_Neck 0.000000 0.000000 0.000000 0.000000 0.000000 0.000000 10.000000 
L_humerus 0.000000 0.000000 0.000000 0.000000 0.000000 0.000000 10.000000 
R_humerus 0.000000 0.000000 0.000000 0.000000 0.000000 0.000000 10.000000 
weapon_bone 0.000000 0.000000 0.000000 0.000000 0.000000 0.000000 10.000000 
Bip01_Head 0.000000 0.000000 0.000000 0.000000 0.000000 0.000000 10.000000 
eye_left_bone 0.000000 0.000000 0.000000 0.000000 0.000000 0.000000 10.000000 
eye_right_bone 0.000000 0.000000 0.000000 0.000000 0.000000 0.000000 10.000000 
L_forearm 0.000000 0.000000 0.000000 0.000000 0.000000 0.000000 10.000000 
L_front_hand 0.000000 0.000000 0.000000 0.000000 0.000000 0.000000 10.000000 
L_weapon_bone 0.000000 0.000000 0.000000 0.000000 0.000000 0.000000 10.000000 
L_front_hand01_01 0.000000 0.000000 0.000000 0.000000 0.000000 0.000000 10.000000 
L_front_hand02_01 0.000000 0.000000 0.000000 0.000000 0.000000 0.000000 10.000000 
L_front_hand03_01 0.000000 0.000000 0.000000 0.000000 0.000000 0.000000 10.000000 
L_front_hand01_02 0.000000 0.000000 0.000000 0.000000 0.000000 0.000000 10.000000 
L_front_hand02_02 0.000000 0.000000 0.000000 0.000000 0.000000 0.000000 10.000000 
L_front_hand03_02 0.000000 0.000000 0.000000 0.000000 0.000000 0.000000 10.000000 
R_forearm 0.000000 0.000000 0.000000 0.000000 0.000000 0.000000 10.000000 
R_front_hand 0.000000 0.000000 0.000000 0.000000 0.000000 0.000000 10.000000 
R_weapon_bone 0.000000 0.000000 0.000000 0.000000 0.000000 0.000000 10.000000 
R_front_hand01_01 0.000000 0.000000 0.000000 0.000000 0.000000 0.000000 10.000000 
R_front_hand02_01 0.000000 0.000000 0.000000 0.000000 0.000000 0.000000 10.000000 
R_front_hand03_01 0.000000 0.000000 0.000000 0.000000 0.000000 0.000000 10.000000 
R_front_hand01_02 0.000000 0.000000 0.000000 0.000000 0.000000 0.000000 10.000000 
R_front_hand02_02 0.000000 0.000000 0.000000 0.000000 0.000000 0.000000 10.000000 
R_front_hand03_02 0.000000 0.000000 0.000000 0.000000 0.000000 0.000000 10.000000 
null_rope01_connect 0.000000 0.000000 0.000000 0.000000 0.000000 0.000000 10.000000 
Rope1_Seg01 0.000000 0.000000 0.000000 0.000000 0.000000 0.000000 10.000000 
Rope1_Seg02 0.000000 0.000000 0.000000 0.000000 0.000000 0.000000 10.000000 
Rope1_Seg03 0.000000 0.000000 0.000000 0.000000 0.000000 0.000000 10.000000 
Rope1_Seg04 0.000000 0.000000 0.000000 0.000000 0.000000 0.000000 10.000000 
Rope1_Seg05 0.000000 0.000000 0.000000 0.000000 0.000000 0.000000 10.000000 
Rope1_Seg06 0.000000 0.000000 0.000000 0.000000 0.000000 0.000000 10.000000 
Rope1_Seg07 0.000000 0.000000 0.000000 0.000000 0.000000 0.000000 10.000000 
Rope1_Seg09 0.000000 0.000000 0.000000 0.000000 0.000000 0.000000 10.000000 
L_mid_hand01 0.000000 0.000000 0.000000 0.000000 0.000000 0.000000 10.000000 
L_mid_hand02 0.000000 0.000000 0.000000 0.000000 0.000000 0.000000 10.000000 
L_mid_hand03 0.000000 0.000000 0.000000 0.000000 0.000000 0.000000 10.000000 
null_rope02_connect 0.000000 0.000000 0.000000 0.000000 0.000000 0.000000 10.000000 
Rope2_Seg01 0.000000 0.000000 0.000000 0.000000 0.000000 0.000000 10.000000 
Rope2_Seg02 0.000000 0.000000 0.000000 0.000000 0.000000 0.000000 10.000000 
Rope2_Seg03 0.000000 0.000000 0.000000 0.000000 0.000000 0.000000 10.000000 
Rope2_Seg04 0.000000 0.000000 0.000000 0.000000 0.000000 0.000000 10.000000 
Rope2_Seg05 0.000000 0.000000 0.000000 0.000000 0.000000 0.000000 10.000000 
Rope2_Seg06 0.000000 0.000000 0.000000 0.000000 0.000000 0.000000 10.000000 
Rope2_Seg07 0.000000 0.000000 0.000000 0.000000 0.000000 0.000000 10.000000 
Rope2_Seg09 0.000000 0.000000 0.000000 0.000000 0.000000 0.000000 10.000000 
R_mid_hand01 0.000000 0.000000 0.000000 0.000000 0.000000 0.000000 10.000000 
R_mid_hand02 0.000000 0.000000 0.000000 0.000000 0.000000 0.000000 10.000000 
R_mid_hand03 0.000000 0.000000 0.000000 0.000000 0.000000 0.000000 10.000000 
spine02 0.000000 0.000000 0.000000 0.000000 0.000000 0.000000 10.000000 
spine03 0.000000 0.000000 0.000000 0.000000 0.000000 0.000000 10.000000 
pelvis 0.000000 0.000000 0.000000 0.000000 0.000000 0.000000 10.000000 
null_rope03_connect 0.000000 0.000000 0.000000 0.000000 0.000000 0.000000 10.000000 
null_rope04_connect 0.000000 0.000000 0.000000 0.000000 0.000000 0.000000 10.000000 
Rope3_Seg01 0.000000 0.000000 0.000000 0.000000 0.000000 0.000000 10.000000 
Rope3_Seg02 0.000000 0.000000 0.000000 0.000000 0.000000 0.000000 10.000000 
Rope3_Seg03 0.000000 0.000000 0.000000 0.000000 0.000000 0.000000 10.000000 
Rope3_Seg04 0.000000 0.000000 0.000000 0.000000 0.000000 0.000000 10.000000 
Rope3_Seg05 0.000000 0.000000 0.000000 0.000000 0.000000 0.000000 10.000000 
Rope3_Seg06 0.000000 0.000000 0.000000 0.000000 0.000000 0.000000 10.000000 
Rope3_Seg07 0.000000 0.000000 0.000000 0.000000 0.000000 0.000000 10.000000 
Rope3_Seg08 0.000000 0.000000 0.000000 0.000000 0.000000 0.000000 10.000000 
Rope3_Seg09 0.000000 0.000000 0.000000 0.000000 0.000000 0.000000 10.000000 
R_rear_hand01 0.000000 0.000000 0.000000 0.000000 0.000000 0.000000 10.000000 
R_rear_hand02 0.000000 0.000000 0.000000 0.000000 0.000000 0.000000 10.000000 
R_rear_hand03 0.000000 0.000000 0.000000 0.000000 0.000000 0.000000 10.000000 
Rope4_Seg01 0.000000 0.000000 0.000000 0.000000 0.000000 0.000000 10.000000 
Rope4_Seg02 0.000000 0.000000 0.000000 0.000000 0.000000 0.000000 10.000000 
Rope4_Seg03 0.000000 0.000000 0.000000 0.000000 0.000000 0.000000 10.000000 
Rope4_Seg04 0.000000 0.000000 0.000000 0.000000 0.000000 0.000000 10.000000 
Rope4_Seg05 0.000000 0.000000 0.000000 0.000000 0.000000 0.000000 10.000000 
Rope4_Seg06 0.000000 0.000000 0.000000 0.000000 0.000000 0.000000 10.000000 
Rope4_Seg07 0.000000 0.000000 0.000000 0.000000 0.000000 0.000000 10.000000 
Rope4_Seg08 0.000000 0.000000 0.000000 0.000000 0.000000 0.000000 10.000000 
Rope4_Seg09 0.000000 0.000000 0.000000 0.000000 0.000000 0.000000 10.000000 
L_rear_hand01 0.000000 0.000000 0.000000 0.000000 0.000000 0.000000 10.000000 
L_rear_hand02 0.000000 0.000000 0.000000 0.000000 0.000000 0.000000 10.000000 
L_rear_hand03 0.000000 0.000000 0.000000 0.000000 0.000000 0.000000 10.000000 
#Beginning of Data. Separated by tabs
#Fr	Tx	Ty	Tz	Rx	Ry	Rz	SF
[MASTER]
29 -99.276871 2544.103027 -14.717482 0.001660 0.001660 0.001660 2546.081787
30 -91.003868 2661.160400 -99.974068 0.001660 0.001660 0.001660 2664.592285
[root]
29 2.696667 444.668884 1250.979736 -91.853607 -36.146282 -89.774208 1327.662598
30 2.696667 444.668884 1277.584229 -91.558556 -35.580975 -89.998665 1352.759766
[chest]
29 -84.512650 -34.090519 0.000000 -9.863432 -24.375113 148.336334 91.129311
30 -84.512650 -34.090519 0.000000 -5.787487 -21.182461 153.273621 91.129311
[L_mid_tent01]
29 27.299171 22.179001 -249.918701 -0.605397 31.833111 70.306717 252.381683
30 27.299173 22.178997 -249.918701 -1.379260 36.511154 66.497551 252.381683
[R_mid_tent01]
29 23.228794 24.509907 226.238495 151.787277 -38.047157 60.822376 228.744751
30 23.228794 24.509907 226.238495 163.814331 -34.299667 59.116482 228.744751
[spine01]
29 -0.361383 -0.195265 0.000000 -0.000001 -0.000007 22.052340 0.410763
30 -0.361383 -0.195265 0.000000 -0.000001 -0.000007 22.052340 0.410763
[Bip01_Neck]
29 165.484543 71.581718 0.000119 176.643677 -1.657967 43.431911 180.302734
30 165.484543 71.581718 0.000119 176.643677 -1.657967 43.431911 180.302734
[L_humerus]
29 -13.983130 -135.272980 -120.471481 165.360580 55.658386 -101.916611 181.680161
30 -13.983130 -135.272980 -120.471481 156.317535 70.209969 -112.010117 181.680161
[R_humerus]
29 -13.983309 -135.273102 125.287651 -174.419708 -51.899876 -90.169861 184.909012
30 -13.983309 -135.273102 125.287651 -172.382278 -66.903748 -92.553986 184.909012
[weapon_bone]
29 235.964890 -300.705902 0.000000 0.000000 -89.951546 -128.212341 382.234833
30 235.964890 -300.705902 0.000000 0.000000 -89.951546 -128.212341 382.234833
[Bip01_Head]
29 217.316559 193.779846 33.482765 32.574520 13.922997 -44.059906 293.083954
30 217.316483 193.779831 33.482944 32.574509 13.922996 -44.059906 293.083923
[eye_left_bone]
29 -24.626970 125.451866 -64.772606 0.000000 -90.000000 -99.840431 143.318359
30 -24.626970 125.451866 -64.772606 0.000000 -90.000000 -99.840431 143.318359
[eye_right_bone]
29 -24.626970 125.451866 64.327362 0.000000 -89.965736 80.156380 143.117676
30 -24.626970 125.451866 64.327362 0.000000 -89.965736 80.156380 143.117676
[L_forearm]
29 322.776093 0.000000 -0.000119 0.000212 -0.002338 -100.372185 322.776093
30 322.776093 0.000000 -0.000119 0.000184 -0.002340 -98.980797 322.776093
[L_front_hand]
29 241.149185 -0.042021 -3.300071 54.887314 -1.835121 -27.421274 241.171753
30 241.149185 -0.042021 -3.300071 27.862400 -1.834255 -27.420771 241.171753
[L_weapon_bone]
29 156.183838 0.000000 0.000000 0.000014 0.000007 0.000001 156.183838
30 156.183838 0.000000 0.000000 0.000014 0.000007 0.000001 156.183838
[L_front_hand01_01]
29 86.095154 20.947098 -0.655860 -0.255039 -0.543545 62.886242 88.609184
30 86.095154 20.947098 -0.655860 -0.366593 -0.477154 75.385490 88.609184
[L_front_hand02_01]
29 86.935165 -11.437475 24.513514 138.598419 -52.898949 -42.482002 91.046425
30 86.935165 -11.437475 24.513514 154.399658 -59.883785 -61.369423 91.046425
[L_front_hand03_01]
29 86.637497 -14.123976 -20.424902 -139.130096 51.148178 -44.655521 90.126129
30 86.637497 -14.123976 -20.424902 -153.913727 58.118095 -62.702717 90.126129
[L_front_hand01_02]
29 71.020905 -0.000179 0.000030 0.001520 0.001789 -9.276680 71.020905
30 71.020905 -0.000179 0.000030 0.001502 0.001804 -10.433298 71.020905
[L_front_hand02_02]
29 71.020927 -0.000119 0.000060 0.001520 0.001789 -9.276680 71.020927
30 71.020927 -0.000119 0.000060 0.001502 0.001804 -10.433298 71.020927
[L_front_hand03_02]
29 71.020905 -0.000060 0.000060 0.001520 0.001789 -9.276680 71.020905
30 71.020905 -0.000060 0.000060 0.001502 0.001804 -10.433298 71.020905
[R_forearm]
29 322.776428 -0.000060 0.000030 0.211440 0.032103 -99.149590 322.776428
30 322.776428 -0.000060 0.000030 0.212301 0.022423 -97.686340 322.776428
[R_front_hand]
29 238.847015 -0.006795 2.210259 -33.621059 -10.645927 -26.313271 238.857239
30 238.847015 -0.006795 2.210259 4.659021 -10.645371 -26.313295 238.857239
[R_weapon_bone]
29 155.664093 0.002503 -0.000030 0.003487 0.001180 -90.988930 155.664078
30 155.664093 0.002503 -0.000030 0.003487 0.001180 -90.988930 155.664078
[R_front_hand01_01]
29 87.624611 14.231146 22.918642 -138.750275 -52.998177 42.777576 91.683487
30 87.624611 14.231146 22.918642 -154.633362 -59.950600 61.745903 91.683487
[R_front_hand02_01]
29 89.356956 14.367283 -19.491137 139.579132 51.434765 45.462902 92.579636
30 89.356956 14.367283 -19.491137 154.602539 58.302822 63.744236 92.579636
[R_front_hand03_01]
29 87.286232 -22.307278 -0.143439 0.065239 -0.451614 -63.269779 90.091743
30 87.286232 -22.307278 -0.143439 0.162155 -0.423168 -75.767807 90.091743
[R_front_hand01_02]
29 71.020905 0.000060 0.000119 0.001790 0.001518 9.404065 71.020905
30 71.020905 0.000060 0.000119 0.001800 0.001506 10.173449 71.020905
[R_front_hand02_02]
29 71.020844 -0.000030 -0.000119 0.001790 0.001518 9.404065 71.020836
30 71.020844 -0.000030 -0.000119 0.001800 0.001506 10.173449 71.020836
[R_front_hand03_02]
29 71.020905 0.000000 0.000030 0.001790 0.001518 9.404065 71.020905
30 71.020905 0.000000 0.000030 0.001800 0.001506 10.173449 71.020905
[null_rope01_connect]
29 328.732483 0.000000 -0.000238 -126.405533 -56.580906 -177.716171 328.732483
30 328.732483 0.000000 -0.000238 -123.964111 -52.011665 -177.220795 328.732483
[Rope1_Seg01]
29 0.000000 0.000000 0.000000 -25.351479 51.333183 150.649979 0.000000
30 0.000000 0.000000 0.000000 -19.637081 63.341106 162.365982 0.000000
[Rope1_Seg02]
29 139.999863 -0.000179 0.000000 -2.736187 -7.070461 23.427517 139.999863
30 139.999863 -0.000179 0.000000 -1.984572 -9.307273 17.660501 139.999863
[Rope1_Seg03]
29 139.999924 0.000060 -0.000060 -1.127365 -13.942364 24.901848 139.999924
30 139.999924 0.000060 -0.000060 -2.515253 -15.670145 19.000900 139.999924
[Rope1_Seg04]
29 139.999924 -0.000060 -0.000119 3.709288 -6.774360 15.144971 139.999924
30 139.999924 -0.000060 -0.000119 -1.099141 -11.031096 12.899534 139.999924
[Rope1_Seg05]
29 139.999832 0.000119 -0.000060 23.593420 15.338496 14.775364 139.999832
30 139.999832 0.000119 -0.000060 20.745543 14.692142 14.142648 139.999832
[Rope1_Seg06]
29 139.999954 0.000119 -0.000060 15.803615 23.819096 5.584316 139.999954
30 139.999954 0.000119 -0.000060 16.320177 26.120398 6.785464 139.999954
[Rope1_Seg07]
29 139.999985 0.000060 0.000000 4.033357 10.139308 1.164478 139.999985
30 139.999985 0.000060 0.000000 3.883034 11.282595 1.499251 139.999985
[Rope1_Seg09]
29 121.602913 0.000119 -0.000089 -89.793175 -1.359789 0.847147 121.602913
30 121.602913 0.000119 -0.000089 -89.793175 -1.359789 0.847147 121.602913
[L_mid_hand01]
29 103.859421 1.038730 8.195221 130.544373 -67.584534 -38.866943 104.187431
30 103.859421 1.038730 8.195221 130.544373 -67.584534 -38.866943 104.187431
[L_mid_hand02]
29 105.572853 -4.139662 -10.864139 -168.923172 43.409321 -73.498909 106.211075
30 105.572853 -4.139662 -10.864139 -168.923172 43.409309 -73.498886 106.211075
[L_mid_hand03]
29 104.641464 17.579376 -3.913581 -6.012627 17.808174 74.893669 106.179977
30 104.641464 17.579376 -3.913581 -6.012626 17.808172 74.893661 106.179977
[null_rope02_connect]
29 328.732849 0.000179 -0.000119 -71.997223 44.328041 33.480942 328.732849
30 328.732849 0.000179 -0.000119 -84.530853 53.301697 24.434214 328.732849
[Rope2_Seg01]
29 0.000065 0.000046 0.000000 6.692848 26.523178 -56.082470 0.000079
30 0.000066 0.000042 0.000000 18.795187 37.637394 -47.365746 0.000078
[Rope2_Seg02]
29 139.999741 -0.000060 -0.000119 5.262341 6.146865 3.894455 139.999756
30 139.999741 -0.000060 -0.000119 2.966928 8.703069 1.740843 139.999756
[Rope2_Seg03]
29 140.000107 0.000030 0.000000 3.410346 6.046607 2.347182 140.000107
30 140.000107 0.000030 0.000000 2.704652 13.955525 1.603703 140.000107
[Rope2_Seg04]
29 139.999802 0.000000 -0.000060 5.653862 11.053271 5.341256 139.999802
30 139.999802 0.000000 -0.000060 1.248155 33.303337 4.872710 139.999802
[Rope2_Seg05]
29 139.999985 -0.000060 0.000119 11.605525 30.814384 18.200758 139.999985
30 139.999985 -0.000060 0.000119 -10.357117 33.537453 7.449179 139.999985
[Rope2_Seg06]
29 139.999893 -0.000030 -0.000119 -0.242302 19.264797 7.556004 139.999893
30 139.999893 -0.000030 -0.000119 -8.407185 10.369052 4.417730 139.999893
[Rope2_Seg07]
29 139.999893 0.000060 -0.000060 -1.878334 9.168694 3.732266 139.999893
30 139.999893 0.000060 -0.000060 -5.353199 4.582579 2.830078 139.999893
[Rope2_Seg09]
29 121.338966 0.000089 -0.000060 33.793236 -1.359788 -0.847141 121.338966
30 121.338966 0.000089 -0.000060 33.793236 -1.359788 -0.847141 121.338966
[R_mid_hand01]
29 104.680779 11.144459 -10.335981 -16.212063 45.237247 70.462852 105.778534
30 104.680779 11.144459 -10.335981 -16.212063 45.237240 70.462845 105.778534
[R_mid_hand02]
29 104.070427 2.443552 8.231699 49.067387 -67.749794 39.286469 104.424065
30 104.070427 2.443552 8.231699 49.067371 -67.749794 39.286461 104.424065
[R_mid_hand03]
29 106.028137 -11.221827 -5.996406 -177.101105 15.551026 -76.585571 106.788818
30 106.028137 -11.221827 -5.996406 -177.101105 15.551026 -76.585571 106.788818
[spine02]
29 129.756927 0.001550 0.000119 0.433622 -4.036919 -14.024939 129.756927
30 129.756927 0.001550 0.000119 0.423707 -4.038050 -13.883000 129.756927
[spine03]
29 78.613945 0.081589 -4.899006 1.941621 3.809325 17.165314 78.766487
30 78.613937 0.081593 -4.899006 1.935976 3.811943 17.076508 78.766479
[pelvis]
29 169.435242 0.051022 0.000000 -0.064294 -0.179254 15.486165 169.435257
30 169.435242 0.051022 0.000000 -0.063194 -0.179464 15.305607 169.435257
[null_rope03_connect]
29 -1.257226 -2.466202 137.391083 0.000000 -89.478851 85.484962 137.418976
30 -1.257226 -2.466202 137.391083 0.000000 -89.594582 85.042915 137.418976
[null_rope04_connect]
29 -1.259640 -2.480268 -137.844437 0.000000 -89.478851 85.484962 137.872513
30 -1.259640 -2.480268 -137.844437 0.000000 -89.594582 85.042915 137.872513
[Rope3_Seg01]
29 -0.000032 -0.000225 0.000000 18.370678 -19.345623 -79.335693 0.000227
30 -0.000033 -0.000232 0.000000 18.446630 -14.623995 -81.901665 0.000234
[Rope3_Seg02]
29 139.999924 -0.000119 0.000060 -0.079498 -5.760258 13.840325 139.999924
30 139.999924 -0.000119 0.000060 0.192594 -5.303356 13.685105 139.999924
[Rope3_Seg03]
29 139.999924 -0.000119 0.000119 -0.994199 -2.015016 11.633945 139.999924
30 139.999924 -0.000119 0.000119 -0.944523 -1.920200 12.467707 139.999924
[Rope3_Seg04]
29 139.999924 0.000119 0.000000 -3.435507 -5.894711 11.971204 139.999924
30 139.999924 0.000119 0.000000 -3.245690 -5.087184 12.192853 139.999924
[Rope3_Seg05]
29 139.999924 -0.000238 0.000060 -7.439517 -15.186701 12.136885 139.999924
30 139.999924 -0.000238 0.000060 -7.587258 -15.646546 11.923285 139.999924
[Rope3_Seg06]
29 139.999893 -0.000119 -0.000060 -2.960852 -8.374976 5.200478 139.999893
30 139.999893 -0.000119 -0.000060 -3.178142 -9.242735 5.288487 139.999893
[Rope3_Seg07]
29 139.999771 0.000060 -0.000119 -1.111289 -4.326575 2.726485 139.999771
30 139.999771 0.000060 -0.000119 -1.174193 -4.740260 2.807777 139.999771
[Rope3_Seg08]
29 139.999985 -0.000060 0.000000 -0.363754 -2.535999 1.533406 139.999985
30 139.999985 -0.000060 0.000000 -0.382588 -2.768177 1.569306 139.999985
[Rope3_Seg09]
29 90.185997 -0.000179 -0.000060 89.793228 -1.359877 -0.847183 90.185997
30 90.185997 -0.000179 -0.000060 89.793228 -1.359877 -0.847183 90.185997
[R_rear_hand01]
29 103.366196 -6.073594 -10.757982 -177.714203 24.565960 -73.910950 104.101845
30 103.366196 -6.073594 -10.757982 -177.714203 24.565960 -73.910950 104.101845
[R_rear_hand02]
29 100.509819 12.039542 -7.992327 -12.874829 36.868488 72.167213 101.543350
30 100.509819 12.039542 -7.992327 -12.874829 36.868488 72.167213 101.543350
[R_rear_hand03]
29 101.539970 5.215704 5.435467 71.484581 -71.816628 21.513813 101.819031
30 101.539970 5.215704 5.435467 71.484581 -71.816628 21.513813 101.819031
[Rope4_Seg01]
29 0.000010 0.000038 -0.000114 -16.876980 -33.901180 161.340500 0.000121
30 0.000010 0.000038 -0.000114 -18.554375 -29.167032 163.057373 0.000121
[Rope4_Seg02]
29 139.999985 0.000060 0.000119 -11.883753 6.961347 15.686537 139.999985
30 139.999985 0.000060 0.000119 -14.448812 6.549821 15.519029 139.999985
[Rope4_Seg03]
29 139.999924 0.000000 -0.000238 -28.166761 -2.972595 21.134825 139.999924
30 139.999924 0.000000 -0.000238 -31.014080 -5.109871 20.443502 139.999924
[Rope4_Seg04]
29 139.999985 0.000000 0.000119 -17.185110 -11.204793 11.506335 139.999985
30 139.999985 0.000000 0.000119 -14.976783 -10.340576 9.198567 139.999985
[Rope4_Seg05]
29 139.999802 -0.000060 -0.000119 -6.691212 22.569571 15.429946 139.999802
30 139.999802 -0.000060 -0.000119 -6.117508 26.072964 16.195999 139.999802
[Rope4_Seg06]
29 139.999924 0.000000 0.000060 -151.477707 39.730167 34.553791 139.999924
30 139.999924 0.000000 0.000060 -153.910095 40.676052 35.052357 139.999924
[Rope4_Seg07]
29 139.999802 0.000000 0.000000 0.412749 -12.700126 -5.525204 139.999802
30 139.999802 0.000000 0.000000 0.871680 -11.667175 -5.588063 139.999802
[Rope4_Seg08]
29 139.999924 0.000000 0.000119 -1.380596 -5.157767 -2.293025 139.999924
30 139.999924 0.000000 0.000119 -1.297230 -4.868813 -2.289875 139.999924
[Rope4_Seg09]
29 90.185791 0.000060 0.000060 -135.617828 2.228885 0.850567 90.185791
30 90.185791 0.000060 0.000060 -135.617828 2.228885 0.850567 90.185791
[L_rear_hand01]
29 101.696655 -8.392275 -7.654577 -12.874829 -36.868488 107.832764 102.329041
30 101.696655 -8.392275 -7.654577 -12.874829 -36.868488 107.832764 102.329041
[L_rear_hand02]
29 102.726799 -1.568258 5.773216 71.484581 71.816628 158.486160 102.900848
30 102.726799 -1.568258 5.773216 71.484581 71.816628 158.486160 102.900848
[L_rear_hand03]
29 104.552910 9.721220 -10.420293 -177.714203 -24.565960 -106.089035 105.519653
30 104.552910 9.721220 -10.420293 -177.714203 -24.565960 -106.089035 105.519653
